<svg width="121" height="19" fill="none" xmlns="http://www.w3.org/2000/svg"><path d="M10.934 15.074H4.818L3.806 18H.572L6.094 2.622H9.68L15.202 18h-3.256l-1.012-2.926zm-.836-2.464L7.876 6.186 5.654 12.61h4.444zm22.304-6.974c1.496 0 2.699.462 3.608 1.386.924.91 1.386 2.185 1.386 3.828V18h-3.08v-6.732c0-.953-.242-1.68-.726-2.178-.484-.513-1.144-.77-1.98-.77-.836 0-1.503.257-2.002.77-.484.499-.726 1.225-.726 2.178V18h-3.08v-6.732c0-.953-.242-1.68-.726-2.178-.484-.513-1.144-.77-1.98-.77-.85 0-1.525.257-2.024.77-.484.499-.726 1.225-.726 2.178V18h-3.08V5.812h3.08v1.474a4.12 4.12 0 011.518-1.21c.63-.293 1.32-.44 2.068-.44.953 0 1.804.205 2.552.616a4.17 4.17 0 011.738 1.716c.396-.704.968-1.269 1.716-1.694a4.978 4.978 0 012.464-.638zm7.125 6.226c0-1.232.242-2.325.726-3.278.498-.953 1.166-1.687 2.002-2.2.85-.513 1.796-.77 2.838-.77.91 0 1.701.183 2.376.55.69.367 1.24.829 1.65 1.386V5.812h3.102V18h-3.102v-1.782c-.396.572-.946 1.049-1.65 1.43-.69.367-1.489.55-2.398.55a5.235 5.235 0 01-2.816-.792c-.836-.528-1.504-1.269-2.002-2.222-.484-.968-.726-2.075-.726-3.322zm9.592.044c0-.748-.147-1.386-.44-1.914A3.011 3.011 0 0047.49 8.76a3.114 3.114 0 00-1.606-.44c-.572 0-1.1.14-1.584.418-.484.279-.88.69-1.188 1.232-.294.528-.44 1.159-.44 1.892 0 .733.146 1.379.44 1.936.308.543.704.96 1.188 1.254.498.293 1.026.44 1.584.44a3.24 3.24 0 001.606-.418 3.201 3.201 0 001.188-1.232c.293-.543.44-1.188.44-1.936zm12.864-6.27c1.452 0 2.625.462 3.52 1.386.895.91 1.342 2.185 1.342 3.828V18h-3.08v-6.732c0-.968-.242-1.709-.726-2.222-.484-.528-1.144-.792-1.98-.792-.85 0-1.525.264-2.024.792-.484.513-.726 1.254-.726 2.222V18h-3.08V5.812h3.08V7.33c.41-.528.931-.939 1.562-1.232a4.84 4.84 0 012.112-.462zm18.335 12.518c-1.07 0-2.039-.183-2.904-.55-.85-.367-1.525-.895-2.024-1.584-.499-.69-.755-1.503-.77-2.442h3.3c.044.63.264 1.13.66 1.496.41.367.968.55 1.672.55.719 0 1.283-.169 1.694-.506.41-.352.616-.807.616-1.364 0-.455-.14-.829-.418-1.122a2.798 2.798 0 00-1.056-.682c-.41-.176-.983-.367-1.716-.572-.997-.293-1.811-.58-2.442-.858a4.526 4.526 0 01-1.606-1.298c-.44-.587-.66-1.364-.66-2.332 0-.91.227-1.701.682-2.376.455-.675 1.093-1.188 1.914-1.54.821-.367 1.76-.55 2.816-.55 1.584 0 2.867.389 3.85 1.166.997.763 1.547 1.833 1.65 3.212h-3.388a1.713 1.713 0 00-.682-1.298c-.41-.352-.96-.528-1.65-.528-.601 0-1.085.154-1.452.462-.352.308-.528.755-.528 1.342 0 .41.132.755.396 1.034.279.264.616.484 1.012.66.41.161.983.352 1.716.572.997.293 1.811.587 2.442.88.63.293 1.173.733 1.628 1.32.455.587.682 1.357.682 2.31 0 .821-.213 1.584-.638 2.288-.425.704-1.049 1.269-1.87 1.694-.821.41-1.797.616-2.926.616zm13.516.044c-1.173 0-2.229-.257-3.168-.77a5.776 5.776 0 01-2.222-2.222c-.528-.953-.792-2.053-.792-3.3 0-1.247.272-2.347.814-3.3a5.732 5.732 0 012.266-2.2c.954-.528 2.017-.792 3.19-.792 1.174 0 2.237.264 3.19.792a5.584 5.584 0 012.244 2.2c.558.953.836 2.053.836 3.3 0 1.247-.286 2.347-.858 3.3a5.846 5.846 0 01-2.288 2.222c-.953.513-2.024.77-3.212.77zm0-2.684c.558 0 1.078-.132 1.562-.396a3.01 3.01 0 001.188-1.232c.294-.543.44-1.203.44-1.98 0-1.159-.308-2.046-.924-2.662-.601-.63-1.342-.946-2.222-.946-.88 0-1.62.315-2.222.946-.586.616-.88 1.503-.88 2.662s.286 2.053.858 2.684c.587.616 1.32.924 2.2.924zm15.372-9.878c1.452 0 2.625.462 3.52 1.386.894.91 1.342 2.185 1.342 3.828V18h-3.08v-6.732c0-.968-.242-1.709-.726-2.222-.484-.528-1.144-.792-1.98-.792-.851 0-1.526.264-2.024.792-.484.513-.726 1.254-.726 2.222V18h-3.08V5.812h3.08V7.33c.41-.528.931-.939 1.562-1.232a4.837 4.837 0 012.112-.462zm9.353-1.276c-.543 0-.998-.169-1.364-.506a1.764 1.764 0 01-.528-1.298c0-.513.176-.939.528-1.276.366-.352.821-.528 1.364-.528.542 0 .99.176 1.342.528.366.337.55.763.55 1.276s-.184.946-.55 1.298c-.352.337-.8.506-1.342.506zm1.518 1.452V18h-3.08V5.812h3.08z" fill="url(#prefix__paint0_linear)"/><defs><linearGradient id="prefix__paint0_linear" x1="61" y1="-6" x2="91.5" y2="6.5" gradientUnits="userSpaceOnUse"><stop stop-color="#7DECEC"/><stop offset="1" stop-color="#F38FF5"/></linearGradient></defs></svg>