<svg width="121" height="19" viewBox="0 0 121 19" fill="none" xmlns="http://www.w3.org/2000/svg">
<path d="M10.934 15.074H4.818L3.806 18H0.572L6.094 2.622H9.68L15.202 18H11.946L10.934 15.074ZM10.098 12.61L7.876 6.186L5.654 12.61H10.098ZM32.402 5.636C33.898 5.636 35.1007 6.098 36.01 7.022C36.934 7.93133 37.396 9.20733 37.396 10.85V18H34.316V11.268C34.316 10.3147 34.074 9.58867 33.59 9.09C33.106 8.57667 32.446 8.32 31.61 8.32C30.774 8.32 30.1067 8.57667 29.608 9.09C29.124 9.58867 28.882 10.3147 28.882 11.268V18H25.802V11.268C25.802 10.3147 25.56 9.58867 25.076 9.09C24.592 8.57667 23.932 8.32 23.096 8.32C22.2454 8.32 21.5707 8.57667 21.072 9.09C20.588 9.58867 20.346 10.3147 20.346 11.268V18H17.266V5.812H20.346V7.286C20.742 6.77267 21.248 6.36933 21.864 6.076C22.4947 5.78267 23.184 5.636 23.932 5.636C24.8854 5.636 25.736 5.84133 26.484 6.252C27.232 6.648 27.8114 7.22 28.222 7.968C28.618 7.264 29.19 6.69933 29.938 6.274C30.7007 5.84867 31.522 5.636 32.402 5.636ZM39.5268 11.862C39.5268 10.63 39.7688 9.53733 40.2528 8.584C40.7514 7.63067 41.4188 6.89733 42.2548 6.384C43.1054 5.87067 44.0514 5.614 45.0928 5.614C46.0021 5.614 46.7941 5.79733 47.4688 6.164C48.1581 6.53067 48.7081 6.99267 49.1188 7.55V5.812H52.2208V18H49.1188V16.218C48.7228 16.79 48.1728 17.2667 47.4688 17.648C46.7794 18.0147 45.9801 18.198 45.0708 18.198C44.0441 18.198 43.1054 17.934 42.2548 17.406C41.4188 16.878 40.7514 16.1373 40.2528 15.184C39.7688 14.216 39.5268 13.1087 39.5268 11.862ZM49.1188 11.906C49.1188 11.158 48.9721 10.52 48.6788 9.992C48.3854 9.44933 47.9894 9.03867 47.4908 8.76C46.9921 8.46667 46.4568 8.32 45.8848 8.32C45.3128 8.32 44.7848 8.45933 44.3008 8.738C43.8168 9.01667 43.4208 9.42733 43.1128 9.97C42.8194 10.498 42.6728 11.1287 42.6728 11.862C42.6728 12.5953 42.8194 13.2407 43.1128 13.798C43.4208 14.3407 43.8168 14.7587 44.3008 15.052C44.7994 15.3453 45.3274 15.492 45.8848 15.492C46.4568 15.492 46.9921 15.3527 47.4908 15.074C47.9894 14.7807 48.3854 14.37 48.6788 13.842C48.9721 13.2993 49.1188 12.654 49.1188 11.906ZM61.9829 5.636C63.4349 5.636 64.6083 6.098 65.5029 7.022C66.3976 7.93133 66.8449 9.20733 66.8449 10.85V18H63.7649V11.268C63.7649 10.3 63.5229 9.55933 63.0389 9.046C62.5549 8.518 61.8949 8.254 61.0589 8.254C60.2083 8.254 59.5336 8.518 59.0349 9.046C58.5509 9.55933 58.3089 10.3 58.3089 11.268V18H55.2289V5.812H58.3089V7.33C58.7196 6.802 59.2403 6.39133 59.8709 6.098C60.5163 5.79 61.2203 5.636 61.9829 5.636ZM80.318 18.154C79.2474 18.154 78.2794 17.9707 77.414 17.604C76.5634 17.2373 75.8887 16.7093 75.39 16.02C74.8914 15.3307 74.6347 14.5167 74.62 13.578H77.92C77.964 14.2087 78.184 14.7073 78.58 15.074C78.9907 15.4407 79.548 15.624 80.252 15.624C80.9707 15.624 81.5354 15.4553 81.946 15.118C82.3567 14.766 82.562 14.3113 82.562 13.754C82.562 13.2993 82.4227 12.9253 82.144 12.632C81.8654 12.3387 81.5134 12.1113 81.088 11.95C80.6774 11.774 80.1054 11.5833 79.372 11.378C78.3747 11.0847 77.5607 10.7987 76.93 10.52C76.314 10.2267 75.7787 9.794 75.324 9.222C74.884 8.63533 74.664 7.858 74.664 6.89C74.664 5.98067 74.8914 5.18867 75.346 4.514C75.8007 3.83933 76.4387 3.326 77.26 2.974C78.0814 2.60733 79.02 2.424 80.076 2.424C81.66 2.424 82.9434 2.81267 83.926 3.59C84.9234 4.35267 85.4734 5.42333 85.576 6.802H82.188C82.1587 6.274 81.9314 5.84133 81.506 5.504C81.0954 5.152 80.5454 4.976 79.856 4.976C79.2547 4.976 78.7707 5.13 78.404 5.438C78.052 5.746 77.876 6.19333 77.876 6.78C77.876 7.19067 78.008 7.53533 78.272 7.814C78.5507 8.078 78.888 8.298 79.284 8.474C79.6947 8.63533 80.2667 8.826 81 9.046C81.9974 9.33933 82.8114 9.63267 83.442 9.926C84.0727 10.2193 84.6154 10.6593 85.07 11.246C85.5247 11.8327 85.752 12.6027 85.752 13.556C85.752 14.3773 85.5394 15.14 85.114 15.844C84.6887 16.548 84.0654 17.1127 83.244 17.538C82.4227 17.9487 81.4474 18.154 80.318 18.154ZM93.8343 18.198C92.661 18.198 91.605 17.9413 90.6663 17.428C89.7276 16.9 88.987 16.1593 88.4443 15.206C87.9163 14.2527 87.6523 13.1527 87.6523 11.906C87.6523 10.6593 87.9236 9.55933 88.4663 8.606C89.0236 7.65267 89.779 6.91933 90.7323 6.406C91.6856 5.878 92.749 5.614 93.9223 5.614C95.0956 5.614 96.159 5.878 97.1123 6.406C98.0656 6.91933 98.8136 7.65267 99.3563 8.606C99.9136 9.55933 100.192 10.6593 100.192 11.906C100.192 13.1527 99.9063 14.2527 99.3343 15.206C98.777 16.1593 98.0143 16.9 97.0463 17.428C96.093 17.9413 95.0223 18.198 93.8343 18.198ZM93.8343 15.514C94.3916 15.514 94.9123 15.382 95.3963 15.118C95.895 14.8393 96.291 14.4287 96.5843 13.886C96.8776 13.3433 97.0243 12.6833 97.0243 11.906C97.0243 10.7473 96.7163 9.86 96.1003 9.244C95.499 8.61333 94.7583 8.298 93.8783 8.298C92.9983 8.298 92.2576 8.61333 91.6563 9.244C91.0696 9.86 90.7763 10.7473 90.7763 11.906C90.7763 13.0647 91.0623 13.9593 91.6343 14.59C92.221 15.206 92.9543 15.514 93.8343 15.514ZM109.206 5.636C110.658 5.636 111.831 6.098 112.726 7.022C113.62 7.93133 114.068 9.20733 114.068 10.85V18H110.988V11.268C110.988 10.3 110.746 9.55933 110.262 9.046C109.778 8.518 109.118 8.254 108.282 8.254C107.431 8.254 106.756 8.518 106.258 9.046C105.774 9.55933 105.532 10.3 105.532 11.268V18H102.452V5.812H105.532V7.33C105.942 6.802 106.463 6.39133 107.094 6.098C107.739 5.79 108.443 5.636 109.206 5.636ZM118.559 4.36C118.016 4.36 117.561 4.19133 117.195 3.854C116.843 3.502 116.667 3.06933 116.667 2.556C116.667 2.04267 116.843 1.61733 117.195 1.28C117.561 0.927999 118.016 0.751999 118.559 0.751999C119.101 0.751999 119.549 0.927999 119.901 1.28C120.267 1.61733 120.451 2.04267 120.451 2.556C120.451 3.06933 120.267 3.502 119.901 3.854C119.549 4.19133 119.101 4.36 118.559 4.36ZM120.077 5.812V18H116.997V5.812H120.077Z" fill="url(#paint0_linear)"/>
<defs>
<linearGradient id="paint0_linear" x1="61" y1="-6" x2="91.5" y2="6.5" gradientUnits="userSpaceOnUse">
<stop stop-color="#7DECEC"/>
<stop offset="1" stop-color="#F38FF5"/>
</linearGradient>
</defs>
</svg>
