<svg width="35" height="34" viewBox="0 0 35 34" fill="none" xmlns="http://www.w3.org/2000/svg">
<path d="M33 16.6956C33.0026 18.6312 32.6006 20.5481 31.8173 22.3356C31.0339 24.1231 29.8847 25.7456 28.436 27.1096C26.9992 28.4694 25.2939 29.5474 23.4174 30.2821C21.5409 31.0167 19.5302 31.3936 17.5 31.3911C8.93936 31.3911 2.00001 24.8119 2.00001 16.6956C1.99459 12.9275 3.52124 9.30234 6.26251 6.574C7.70892 5.12693 9.45157 3.97491 11.3838 3.18843C13.316 2.40195 15.3972 1.99756 17.5 2.00001C19.5302 1.99752 21.5409 2.37437 23.4174 3.10902C25.2939 3.84367 26.9992 4.92172 28.436 6.28156C29.8847 7.64547 31.0339 9.26804 31.8173 11.0555C32.6006 12.843 33.0026 14.7599 33 16.6956V16.6956Z" stroke="#FF1BA4" stroke-width="4" stroke-linecap="round" stroke-linejoin="round"/>
<path d="M33.0001 16.6956C30.7387 16.6956 24.4999 15.8873 18.916 18.2114C12.8501 20.7369 8.4582 24.654 6.54395 27.0905" stroke="#FF1BA4" stroke-width="4" stroke-linecap="round" stroke-linejoin="round"/>
<path d="M11.6875 3.06836C14.1132 5.19113 19.4065 10.5962 21.375 15.9608C23.3435 21.3261 24.072 27.9229 24.5215 29.8003" stroke="#FF1BA4" stroke-width="4" stroke-linecap="round" stroke-linejoin="round"/>
<path d="M2.11938 14.8588C5.04733 15.0263 12.7981 15.1769 17.7581 13.1688C22.7181 11.1606 26.986 7.46689 28.45 6.29492" stroke="#FF1BA4" stroke-width="4" stroke-linecap="round" stroke-linejoin="round"/>
<path d="M3.1626 22.2891C4.52839 25.4235 6.99163 28.0161 10.1376 29.6302" stroke="#FF1BA4" stroke-width="4" stroke-linecap="round" stroke-linejoin="round"/>
<path d="M2.00001 16.6953C1.99459 12.9272 3.52122 9.30208 6.26245 6.57373" stroke="#FF1BA4" stroke-width="4" stroke-linecap="round" stroke-linejoin="round"/>
<path d="M17.5 2.00001C15.3972 1.99756 13.316 2.40195 11.3838 3.18842C9.45153 3.9749 7.70887 5.12692 6.26245 6.57399" stroke="#FF1BA4" stroke-width="4" stroke-linecap="round" stroke-linejoin="round"/>
<path d="M23.7 3.22266C25.4651 3.95489 27.0711 4.99217 28.436 6.28153C29.8847 7.64544 31.0339 9.26802 31.8172 11.0555C32.6006 12.843 33.0026 14.7599 33 16.6955C33 18.5053 32.6551 20.2379 32.0235 21.839" stroke="#FF1BA4" stroke-width="4" stroke-linecap="round" stroke-linejoin="round"/>
<path d="M17.5 31.3909C19.5302 31.3934 21.5409 31.0166 23.4174 30.2819C25.2939 29.5473 26.9992 28.4692 28.436 27.1094" stroke="#FF1BA4" stroke-width="4" stroke-linecap="round" stroke-linejoin="round"/>
</svg>
