<svg width="31" height="30" viewBox="0 0 31 30" fill="#FF1BA4" xmlns="http://www.w3.org/2000/svg">
<path fill-rule="evenodd" clip-rule="evenodd" d="M3.83357e-07 2.4555C3.83357e-07 1.80426 0.272865 1.1797 0.758567 0.719201C1.24427 0.258706 1.90302 3.27352e-06 2.58991 3.27352e-06H28.4073C28.7477 -0.000523832 29.0848 0.0626102 29.3995 0.185791C29.7141 0.308971 30 0.489779 30.2408 0.717863C30.4817 0.945947 30.6727 1.21683 30.803 1.51499C30.9332 1.81316 31.0002 2.13276 31 2.4555V26.933C31.0004 27.2557 30.9336 27.5754 30.8035 27.8738C30.6734 28.1721 30.4826 28.4431 30.2419 28.6714C30.0012 28.8998 29.7154 29.0808 29.4009 29.2043C29.0863 29.3278 28.7491 29.3913 28.4087 29.3911H2.58991C2.24968 29.3911 1.91278 29.3276 1.59847 29.2041C1.28415 29.0806 0.998582 28.8996 0.758069 28.6714C0.517555 28.4433 0.326813 28.1724 0.196741 27.8744C0.0666687 27.5763 -0.000184726 27.2569 3.83357e-07 26.9343V2.4555ZM12.2704 11.206H16.468V13.2046C17.074 12.0557 18.624 11.0217 20.9532 11.0217C25.4186 11.0217 26.4768 13.3102 26.4768 17.5091V25.287H21.9579V18.4656C21.9579 16.0743 21.352 14.725 19.8132 14.725C17.6785 14.725 16.7907 16.1798 16.7907 18.4656V25.287H12.2704V11.206ZM4.52036 25.104H9.04073V11.0217H4.52036V25.1027V25.104ZM9.6875 6.42864C9.69602 6.79559 9.62715 7.16046 9.48493 7.50184C9.3427 7.84321 9.12999 8.15421 8.85928 8.41659C8.58857 8.67897 8.2653 8.88744 7.90846 9.02976C7.55162 9.17209 7.16838 9.2454 6.78125 9.2454C6.39412 9.2454 6.01088 9.17209 5.65404 9.02976C5.2972 8.88744 4.97393 8.67897 4.70322 8.41659C4.43251 8.15421 4.21979 7.84321 4.07757 7.50184C3.93535 7.16046 3.86648 6.79559 3.875 6.42864C3.89173 5.70836 4.20527 5.02293 4.74847 4.51914C5.29168 4.01534 6.02136 3.73323 6.78125 3.73323C7.54114 3.73323 8.27082 4.01534 8.81402 4.51914C9.35723 5.02293 9.67077 5.70836 9.6875 6.42864Z" fill="#FF1BA4"/>
</svg>
