<svg width="29" height="29" viewBox="0 0 29 29" fill="none" xmlns="http://www.w3.org/2000/svg">
<path fill-rule="evenodd" clip-rule="evenodd" d="M8.35062 0.08525C9.86575 0.0155 10.3488 0 14.2083 0C18.0678 0 18.5509 0.0167916 20.0647 0.08525C21.5786 0.153708 22.6119 0.39525 23.5161 0.745292C24.4629 1.10308 25.3218 1.66237 26.0322 2.38571C26.7556 3.09483 27.3136 3.9525 27.6701 4.90058C28.0214 5.80475 28.2617 6.83808 28.3314 8.34933C28.4012 9.86704 28.4167 10.3501 28.4167 14.2083C28.4167 18.0678 28.3999 18.5509 28.3314 20.066C28.263 21.5773 28.0214 22.6106 27.6701 23.5148C27.3136 24.463 26.7547 25.3221 26.0322 26.0322C25.3218 26.7556 24.4629 27.3136 23.5161 27.6701C22.6119 28.0214 21.5786 28.2617 20.0673 28.3314C18.5509 28.4012 18.0678 28.4167 14.2083 28.4167C10.3488 28.4167 9.86575 28.3999 8.35062 28.3314C6.83938 28.263 5.80604 28.0214 4.90187 27.6701C3.95369 27.3135 3.0946 26.7546 2.38442 26.0322C1.66157 25.3227 1.1022 24.464 0.745292 23.5161C0.39525 22.6119 0.155 21.5786 0.08525 20.0673C0.0155 18.5496 0 18.0665 0 14.2083C0 10.3488 0.0167916 9.86575 0.08525 8.35192C0.153708 6.83808 0.39525 5.80475 0.745292 4.90058C1.10273 3.95261 1.66253 3.09395 2.38571 2.38442C3.09489 1.66173 3.95311 1.10236 4.90058 0.745292C5.80475 0.39525 6.83808 0.155 8.34933 0.08525H8.35062ZM19.9498 2.64275C18.4515 2.57429 18.002 2.56008 14.2083 2.56008C10.4147 2.56008 9.96521 2.57429 8.46687 2.64275C7.08092 2.70604 6.32917 2.93725 5.828 3.13229C5.16537 3.39062 4.69133 3.69675 4.19404 4.19404C3.72264 4.65265 3.35986 5.21095 3.13229 5.828C2.93725 6.32917 2.70604 7.08092 2.64275 8.46687C2.57429 9.96521 2.56008 10.4147 2.56008 14.2083C2.56008 18.002 2.57429 18.4515 2.64275 19.9498C2.70604 21.3357 2.93725 22.0875 3.13229 22.5887C3.35962 23.2048 3.72258 23.7641 4.19404 24.2226C4.65258 24.6941 5.21187 25.057 5.828 25.2844C6.32917 25.4794 7.08092 25.7106 8.46687 25.7739C9.96521 25.8424 10.4134 25.8566 14.2083 25.8566C18.0032 25.8566 18.4515 25.8424 19.9498 25.7739C21.3357 25.7106 22.0875 25.4794 22.5887 25.2844C23.2513 25.026 23.7253 24.7199 24.2226 24.2226C24.6941 23.7641 25.057 23.2048 25.2844 22.5887C25.4794 22.0875 25.7106 21.3357 25.7739 19.9498C25.8424 18.4515 25.8566 18.002 25.8566 14.2083C25.8566 10.4147 25.8424 9.96521 25.7739 8.46687C25.7106 7.08092 25.4794 6.32917 25.2844 5.828C25.026 5.16537 24.7199 4.69133 24.2226 4.19404C23.764 3.72268 23.2057 3.3599 22.5887 3.13229C22.0875 2.93725 21.3357 2.70604 19.9498 2.64275V2.64275ZM12.3935 18.5884C13.4071 19.0103 14.5356 19.0672 15.5864 18.7495C16.6373 18.4317 17.5452 17.759 18.1552 16.8462C18.7651 15.9334 19.0392 14.8372 18.9307 13.7448C18.8222 12.6523 18.3378 11.6314 17.5602 10.8565C17.0645 10.3611 16.4651 9.98176 15.8053 9.74581C15.1454 9.50987 14.4414 9.42317 13.744 9.49196C13.0466 9.56075 12.3731 9.78331 11.772 10.1436C11.1709 10.5039 10.6572 10.993 10.2678 11.5757C9.87849 12.1584 9.62316 12.8202 9.52025 13.5134C9.41734 14.2066 9.4694 14.914 9.6727 15.5846C9.87599 16.2553 10.2255 16.8725 10.6959 17.3919C11.1664 17.9113 11.7462 18.3199 12.3935 18.5884ZM9.04425 9.04425C9.72241 8.36609 10.5275 7.82815 11.4136 7.46113C12.2996 7.09412 13.2493 6.90522 14.2083 6.90522C15.1674 6.90522 16.1171 7.09412 17.0031 7.46113C17.8892 7.82815 18.6943 8.36609 19.3724 9.04425C20.0506 9.72241 20.5885 10.5275 20.9555 11.4136C21.3225 12.2996 21.5114 13.2493 21.5114 14.2083C21.5114 15.1674 21.3225 16.1171 20.9555 17.0031C20.5885 17.8892 20.0506 18.6943 19.3724 19.3724C18.0028 20.742 16.1452 21.5114 14.2083 21.5114C12.2714 21.5114 10.4138 20.742 9.04425 19.3724C7.67465 18.0028 6.90522 16.1452 6.90522 14.2083C6.90522 12.2714 7.67465 10.4138 9.04425 9.04425V9.04425ZM23.1312 7.99283C23.2992 7.83431 23.4338 7.64367 23.5268 7.43222C23.6199 7.22076 23.6695 6.99278 23.6729 6.76178C23.6763 6.53078 23.6333 6.30146 23.5464 6.08738C23.4596 5.8733 23.3306 5.67883 23.1673 5.51547C23.0039 5.35211 22.8094 5.22319 22.5954 5.13634C22.3813 5.04948 22.152 5.00647 21.921 5.00984C21.69 5.0132 21.462 5.06289 21.2505 5.15594C21.0391 5.249 20.8484 5.38353 20.6899 5.55158C20.3816 5.87841 20.2128 6.31253 20.2194 6.76178C20.2259 7.21104 20.4073 7.64005 20.725 7.95776C21.0427 8.27546 21.4717 8.45684 21.921 8.46339C22.3702 8.46994 22.8043 8.30114 23.1312 7.99283V7.99283Z" fill="#FF1BA4"/>
</svg>
