<svg width="31" height="30" viewBox="0 0 31 30" fill="#FF1BA4" xmlns="http://www.w3.org/2000/svg">
<path fill-rule="evenodd" clip-rule="evenodd" d="M15.5 0C6.93625 0 0 6.7426 0 15.0673C0 21.7345 4.43687 27.3659 10.5981 29.3623C11.3731 29.4942 11.6637 29.0422 11.6637 28.6466C11.6637 28.2888 11.6444 27.1022 11.6444 25.8404C7.75 26.5372 6.7425 24.9175 6.4325 24.07C6.25812 23.6368 5.5025 22.2996 4.84375 21.9417C4.30125 21.6592 3.52625 20.9623 4.82437 20.9435C6.045 20.9247 6.91687 22.0359 7.2075 22.4879C8.6025 24.7668 10.8306 24.1265 11.7219 23.7309C11.8575 22.7516 12.2644 22.0924 12.71 21.7157C9.26125 21.339 5.6575 20.0395 5.6575 14.2762C5.6575 12.6377 6.25812 11.2816 7.24625 10.2269C7.09125 9.85023 6.54875 8.30583 7.40125 6.23408C7.40125 6.23408 8.69937 5.83857 11.6637 7.77848C12.9037 7.43946 14.2212 7.26996 15.5387 7.26996C16.8562 7.26996 18.1737 7.43946 19.4137 7.77848C22.3781 5.81973 23.6762 6.23408 23.6762 6.23408C24.5287 8.30583 23.9862 9.85023 23.8313 10.2269C24.8194 11.2816 25.42 12.6188 25.42 14.2762C25.42 20.0583 21.7969 21.339 18.3481 21.7157C18.91 22.1865 19.3944 23.0906 19.3944 24.5031C19.3944 26.5184 19.375 28.1381 19.375 28.6466C19.375 29.0422 19.6656 29.513 20.4406 29.3623C23.5176 28.3525 26.1914 26.4301 28.0856 23.8658C29.9798 21.3014 30.9991 18.2242 31 15.0673C31 6.7426 24.0637 0 15.5 0Z" fill="#FF1BA4"/>
</svg>
